inDegrees=no
num_controls=7
num_derivatives=13
num_iterations=110
num_multipliers=7
num_parameters=0
num_slacks=7
num_states=26
objective=5.582835
objective_accelerations=0.870710
objective_balance=0.026126
objective_effort=0.200775
objective_height=4.435255
objective_ligament=0.049970
solver_duration=1322.626154
status=Solve_Succeeded
success=true
DataType=double
version=3
OpenSimVersion=4.4-2022-07-23-0e9fedc
endheader
time	/jointset/ground_pelvis/pelvis_tilt/value	/jointset/ground_pelvis/pelvis_tx/value	/jointset/ground_pelvis/pelvis_ty/value	/jointset/hip_l/hip_flexion_l/value	/jointset/hip_l/hip_adduction_l/value	/jointset/hip_l/hip_rotation_l/value	/jointset/back/lumbar_extension/value	/jointset/patellofemoral_l/patellar_flexion_l/value	/jointset/knee_l/knee_flexion_l/value	/jointset/knee_l/knee_adduction_l/value	/jointset/knee_l/knee_rotation_l/value	/jointset/ankle_l/ankle_angle_l/value	/jointset/subtalar_l/subtalar_angle_l/value	/jointset/ground_pelvis/pelvis_tilt/speed	/jointset/ground_pelvis/pelvis_tx/speed	/jointset/ground_pelvis/pelvis_ty/speed	/jointset/hip_l/hip_flexion_l/speed	/jointset/hip_l/hip_adduction_l/speed	/jointset/hip_l/hip_rotation_l/speed	/jointset/back/lumbar_extension/speed	/jointset/patellofemoral_l/patellar_flexion_l/speed	/jointset/knee_l/knee_flexion_l/speed	/jointset/knee_l/knee_adduction_l/speed	/jointset/knee_l/knee_rotation_l/speed	/jointset/ankle_l/ankle_angle_l/speed	/jointset/subtalar_l/subtalar_angle_l/speed	/forceset/tau_hip_flexion_l	/forceset/tau_hip_adduction_l	/forceset/tau_hip_rotation_l	/forceset/tau_knee_flexion_l	/forceset/tau_ankle_angle_l	/forceset/tau_subtalar_angle_l	/forceset/tau_lumbar_extension	lambda_cid13_p0	lambda_cid13_p1	lambda_cid13_p2	lambda_cid13_p3	lambda_cid13_p4	lambda_cid13_p5	lambda_cid14_p0	/jointset/ground_pelvis/pelvis_tilt/accel	/jointset/ground_pelvis/pelvis_tx/accel	/jointset/ground_pelvis/pelvis_ty/accel	/jointset/hip_l/hip_flexion_l/accel	/jointset/hip_l/hip_adduction_l/accel	/jointset/hip_l/hip_rotation_l/accel	/jointset/back/lumbar_extension/accel	/jointset/patellofemoral_l/patellar_flexion_l/accel	/jointset/knee_l/knee_flexion_l/accel	/jointset/knee_l/knee_adduction_l/accel	/jointset/knee_l/knee_rotation_l/accel	/jointset/ankle_l/ankle_angle_l/accel	/jointset/subtalar_l/subtalar_angle_l/accel	gamma_cid13_p0	gamma_cid13_p1	gamma_cid13_p2	gamma_cid13_p3	gamma_cid13_p4	gamma_cid13_p5	gamma_cid14_p0
1.5	-0.4014290874962991	0.04166460643573034	0.772688537950876	1.120875669420161	-0.3564871055537039	-0.03509213728568882	-0.3388048472209744	0.8759573813026873	0.8759573813025338	-0.02487295789935491	-0.1717307331081334	0.2798639000007987	0.158965051106153	0.6223861434180087	0.2867982091747395	0.5763291942780734	-2.613482134965687	-0.02615565256829452	-0.5950882823678351	0.6096072762911787	-2.361246889343529	-2.361246889343813	-0.3818100816285949	0.04324525905152827	-0.5586252925311874	-0.2579398469057931	-0.1518412405472473	0.03843445903135839	-0.002492265768086958	-0.1238885013408699	-0.04027772830621276	0.01681332456447965	0.1378800522342579	-35.46082199576087	-2.704364325093173	1.990597839036569	-4.735103990216595	-425.4679760390389	-56.43081928579679	-7.776709163967953	0.7478486425051862	0.7221557757859129	-0.8653453516963472	-1.494205654513613	0.304738716787628	-0.6574551452383822	1.78807067907987	-1.258296637465213	-1.258296637465212	-0.008771369774785404	0.3850929079539613	-0.591530820281888	0.4549171032332467	7.800002957454851e-07	-1.036554360188713e-06	-1.098035489515211e-05	-7.146775061372842e-07	2.1658342406996e-06	1.622801748604034e-06	1.167223050890107e-06
1.51	-0.3951679185486037	0.04456829899651529	0.7784073973162752	1.094667772143671	-0.3567367963180629	-0.04106562867651634	-0.3326215206179738	0.8522841317314908	0.8522841317314429	-0.02870468569457907	-0.1712768733592223	0.2742477162430658	0.1564035537449572	0.6297318780981149	0.2938899896478657	0.5673089854705031	-2.627718338920013	-0.02377741798624716	-0.5995529753206896	0.6269584287844393	-2.373061542542708	-2.373061542542668	-0.3844959462063166	0.04755737493710869	-0.5645099655633308	-0.2543179237593437	-0.1465688636093676	0.03786279182907623	-0.001443851276110264	-0.1207025079894695	-0.03996199914649232	0.01550776629394192	0.1335869845237461	-35.25213761105199	-2.297456293592026	2.066853654854816	-4.379106817322958	-421.4797762331491	-55.69276112115624	-8.75812198392039	0.7106182649154918	0.6950117509163262	-0.9399712823246681	-1.331384909828158	0.206822293261541	-0.3312029845515165	1.693695205749145	-1.092049493374647	-1.092049493326085	-0.3929697541479261	0.4568805510020135	-0.5717465986042681	0.323478053923545	7.654869128409987e-07	-9.0316346503727e-07	-1.071730219203464e-05	-6.734160251505138e-07	2.192880397502538e-06	1.966688662709516e-06	1.130067504936229e-06
1.52	-0.3888367557772818	0.04754137387560006	0.7840321320661909	1.068328901398857	-0.3569622134437375	-0.04708181231971563	-0.3262676709557793	0.8285029356618466	0.8285029356619205	-0.03256216728603802	-0.1707793705270307	0.2685757235442262	0.1538798052419396	0.6363849081443074	0.3006746728347084	0.5575042711814178	-2.63967682863177	-0.02130092483026436	-0.6036267328432486	0.643711888129689	-2.38283618903111	-2.382836189030748	-0.3869608408791287	0.05197387570837141	-0.5697870807524255	-0.2503900752699852	-0.1412964866713947	0.03729112462679924	-0.0003954367839932262	-0.1175165146380715	-0.03964626998678791	0.01420220802340235	0.1292939168133277	-35.03473556283576	-1.896213484324486	2.148747189860139	-4.096336395861947	-417.3849396336282	-55.10358960246715	-9.747281797755369	0.6093077157223511	0.660736318529222	-1.022246447999389	-1.038662806000203	0.3243904315746784	-0.5792680591792214	1.668532049477668	-0.8502952953101944	-0.8502952953102054	0.03542261120702535	0.4059698850904041	-0.470019251672103	0.5161021718150264	7.496344956717165e-07	-4.69360353637097e-07	-1.035457314340169e-05	-5.908335513147496e-07	2.207217418133109e-06	2.391093191670545e-06	1.112710664386745e-06
1.53	-0.3824425802926825	0.05058076230500887	0.789555064041373	1.041881502886632	-0.3571626277116977	-0.05313762893310849	-0.3197497918223036	0.8046338289406478	0.8046338289406696	-0.03644293069695725	-0.1702376118574049	0.2628539423779874	0.1513965555395799	0.6423130303384992	0.3071504809963107	0.5469622593274414	-2.64942032180638	-0.01879430977537207	-0.6073538452000649	0.6597294042726058	-2.390657834250695	-2.390657834250463	-0.389264368913815	0.0564831225240313	-0.5744693674033111	-0.2462473788875194	-0.1356180952077259	0.03515249649299219	0.0008605533248897743	-0.1154816046931474	-0.03847299246086365	0.01338028801823026	0.1247158372118325	-34.52635209098309	-1.755066924415494	2.271075764446141	-4.003250149691071	-413.7077749153156	-55.32745440207943	-10.73322500147911	0.5640407657611617	0.6330439308345289	-1.087716533791302	-0.8847141427156296	0.2133576345217679	-0.2407789143113344	1.548181252750684	-0.6992246635906235	-0.6992246636100856	-0.3743352862474124	0.4874172527483529	-0.4523445845584392	0.3662660621789036	7.323593545960885e-07	2.836307375273488e-07	-9.885937977658546e-06	-4.643475225769298e-07	2.208050981580538e-06	2.901047686415591e-06	1.116389948329431e-06
1.54	-0.3759932283272509	0.05368331698920602	0.794969068302076	1.01534816512876	-0.3573380637106989	-0.05922498588814287	-0.3130757735561881	0.7806962806615992	0.7806962806615468	-0.04034894834333681	-0.1696479576850169	0.2570883361026866	0.1489553153391873	0.6474202043124401	0.313307923792378	0.5357187282856255	-2.656864677761942	-0.01630527103745994	-0.6099348011720249	0.6749397146575925	-2.39652450060261	-2.396524500602509	-0.3920116879661457	0.06155297625747853	-0.5785521025646673	-0.2419881748763929	-0.1299397037439776	0.03301386835917688	0.002116543433708437	-0.1134466947482342	-0.03729971493496195	0.01255836801303775	0.1201377576104204	-34.01004053247564	-1.614622670199099	2.392740504163945	-3.975023558451251	-409.9096117613958	-55.68381740152072	-11.71355815692976	0.4451180716720227	0.5970632454222341	-1.162550285567312	-0.5788353621907721	0.320875168178626	-0.3500367822079402	1.507090897891647	-0.4592995217766225	-0.4592995217765806	-0.05333559232195689	0.5180912686478586	-0.3501089537661562	0.539403697547128	6.142284137413132e-07	1.890927228329583e-06	-7.938155710650434e-06	-1.554502546635328e-07	1.898353961115326e-06	3.231646400294023e-06	1.04331025553416e-06
1.55	-0.3694968636088338	0.05684565288110376	0.8002671849703106	0.9887524689470443	-0.3574872649703522	-0.06534280811360868	-0.3062533174175799	0.7567105409174824	0.7567105409174253	-0.04427502719726642	-0.1690107037589492	0.2512854546884487	0.146559504612649	0.651746919408256	0.31908755261186	0.5237961155541906	-2.661887564386678	-0.01354729874686603	-0.6134173642453447	0.6894243820143267	-2.400259586441646	-2.400259586441794	-0.3932948814442407	0.06599257692899455	-0.5819221905482121	-0.2371668022434779	-0.1251099938067893	0.03172690171643187	0.003459163755992868	-0.1104199543452293	-0.03776843397838607	0.01104356668005696	0.1161226535834648	-34.11162543681181	-1.067844505041843	2.452787395959989	-3.360374366642389	-406.5490634230525	-55.20344779775606	-12.68687915449859	0.4106170304708071	0.557787801355982	-1.223218228358196	-0.4059145281517955	0.2511507377652823	-0.3147728807952365	1.400084997063058	-0.2761922583909773	-0.2761922584284975	-0.1786097240862627	0.4207733232675233	-0.3149244867026868	0.453913860672529	3.798940514018743e-07	4.482532114366608e-06	-4.286138740011039e-06	3.63616484473887e-07	1.230871702663829e-06	3.355596062304409e-06	8.817908721495097e-07
1.56	-0.3629603979790768	0.06006366008142588	0.8054428552189453	0.9621181640559769	-0.3576093080114517	-0.07148893733199463	-0.2992898285369039	0.7326983344862077	0.7326983344863232	-0.0482164976852625	-0.1683262780549882	0.2454519792411641	0.1442119895753409	0.6554403865814648	0.3244421854772549	0.511229444365645	-2.664586419632857	-0.01087362732562934	-0.6155961997547362	0.7031462630710008	-2.401817838017647	-2.401817838018046	-0.3950900148636732	0.07098733187508728	-0.5846709091739223	-0.2323290370302115	-0.1202802838695498	0.03043993507362042	0.004801784079753776	-0.1073932139422617	-0.03823715302185298	0.009528765346960932	0.1121075495565766	-34.20614247163207	-0.5234502365494236	2.514526723433236	-2.784685235185505	-403.106295285161	-54.77877984606575	-13.65286064282361	0.3184684871504214	0.5120640546048389	-1.291361976989407	-0.1140290864793836	0.3040149943070562	-0.08929126942232249	1.354533637879601	-0.02393266916974311	-0.02393266916974418	-0.1557235805895423	0.6291221235632074	-0.2258350821991613	0.5426822136173621	2.12312303145499e-07	6.315455468787248e-06	-1.742778806184516e-06	7.235862597044912e-07	7.563201037687139e-07	3.399150446300991e-06	7.724603011660929e-07
1.57	-0.3563904156443655	0.06333283526114833	0.810489784819013	0.9354690058058425	-0.3577042527142777	-0.07765506811722708	-0.292193106491256	0.7086814578130941	0.7086814578131764	-0.05217418527717366	-0.1675918129589758	0.2395940680379211	0.1419139967755194	0.6584366321803339	0.3292958800430836	0.498064737906585	-2.66482434759562	-0.008105751908976409	-0.6175309434341225	0.7160395775680638	-2.401203694584781	-2.401203694584705	-0.3964260345560166	0.07593007544252139	-0.5868337284062084	-0.2272455209534174	-0.1156881782335089	0.02969590127639001	0.005961117478022303	-0.1040996803594783	-0.03949542854031492	0.007683577551679845	0.1081992180239637	-34.61460663781936	0.2183833679109604	2.54594919035165	-1.823505182733508	-400.1433100685564	-53.92910918860259	-14.61214885463431	0.2723203860238008	0.4576720817875992	-1.342707930211178	0.08449032909957092	0.2637659792719576	-0.2301411084165912	1.232945081980759	0.1570175565011539	0.157017556572601	-0.1181219700548952	0.4306054048360311	-0.1995610282363413	0.493561124117386	1.281713224929527e-07	7.200026908687417e-06	-5.852401683740704e-07	8.846848300515785e-07	5.229318293190739e-07	3.34221073278032e-06	7.28365745684217e-07
1.58	-0.3497940472957147	0.0666476773713726	0.8154023307645206	0.9088301012721441	-0.3577714002301548	-0.08383746137748443	-0.2849722083553638	0.6846813085157384	0.684681308515715	-0.05614434922747962	-0.166807169440904	0.2337169175054563	0.1396673141003469	0.6607175893699383	0.3335755715776207	0.4843527134536161	-2.662535676347405	-0.005314189935235802	-0.6188486947622954	0.7279814811195605	-2.39847236287246	-2.398472362871908	-0.3975852865082781	0.08102301627005747	-0.5885187750182157	-0.2220670121003424	-0.1110960725973397	0.02895186747924727	0.007120450875665778	-0.1008061467766683	-0.04075370405876237	0.005838389756519077	0.1042908864914574	-35.01675794281159	0.9558849821279224	2.581748383455083	-0.890879330316854	-397.1212179689247	-53.11140002617564	-15.56427507834398	0.1754108052973402	0.3972634483465745	-1.400825575771149	0.391290755716228	0.308752305724621	0.03410720082040436	1.164251448766298	0.3995049867214484	0.3995049867214215	-0.1203700325732458	0.6591615755835794	-0.1302805581432961	0.5616807688735224	7.155862131831983e-08	7.793477834998733e-06	1.000260706996112e-07	9.902114346102028e-07	3.64583073414767e-07	3.304250619961957e-06	7.100112516535456e-07
